<svg xmlns="http://www.w3.org/2000/svg" width="1024" height="1024" viewBox="0 0 1024 1024">
  <defs>
    <clipPath id="br"><circle cx="392" cy="512" r="244"/></clipPath>
    <clipPath id="cn"><circle cx="632" cy="512" r="244"/></clipPath>
    <radialGradient id="g" cx="50%" cy="42%" r="75%">
      <stop offset="0%" stop-color="#16181f"/>
      <stop offset="100%" stop-color="#0a0b0e"/>
    </radialGradient>
  </defs>

  <rect width="1024" height="1024" fill="#0a0b0e"/>
  <rect width="1024" height="1024" fill="url(#g)"/>

  <!-- Bandeira do Brasil -->
  <g clip-path="url(#br)">
    <rect x="140" y="258" width="512" height="512" fill="#009c3b"/>
    <polygon points="392,312 596,512 392,712 188,512" fill="#ffdf00"/>
    <circle cx="392" cy="512" r="96" fill="#002776"/>
    <path d="M302 500 a96 96 0 0 1 180 30" fill="none" stroke="#fff" stroke-width="15"/>
  </g>
  <circle cx="392" cy="512" r="244" fill="none" stroke="#c8a464" stroke-width="8"/>

  <!-- Bandeira da China -->
  <g clip-path="url(#cn)">
    <rect x="392" y="258" width="512" height="512" fill="#de2910"/>
    <text x="552" y="476" font-family="Helvetica,Arial,sans-serif" font-size="160" fill="#ffde00">★</text>
    <text x="690" y="412" font-family="Helvetica,Arial,sans-serif" font-size="56" fill="#ffde00">★</text>
    <text x="732" y="478" font-family="Helvetica,Arial,sans-serif" font-size="56" fill="#ffde00">★</text>
    <text x="726" y="552" font-family="Helvetica,Arial,sans-serif" font-size="56" fill="#ffde00">★</text>
    <text x="690" y="616" font-family="Helvetica,Arial,sans-serif" font-size="56" fill="#ffde00">★</text>
  </g>
  <circle cx="632" cy="512" r="244" fill="none" stroke="#0a0b0e" stroke-width="15"/>
  <circle cx="632" cy="512" r="244" fill="none" stroke="#c8a464" stroke-width="8"/>
</svg>
